<?xml version="1.0" encoding="UTF-8" standalone="no"?>
<!DOCTYPE svg PUBLIC "-//W3C//DTD SVG 1.1//EN"
 "http://www.w3.org/Graphics/SVG/1.1/DTD/svg11.dtd">
<!-- Generated by graphviz version 9.0.0 (20230911.1827)
 -->
<!-- Title: sample Pages: 1 -->
<svg width="547pt" height="404pt"
 viewBox="0.00 0.00 547.20 404.00" xmlns="http://www.w3.org/2000/svg" xmlns:xlink="http://www.w3.org/1999/xlink">
<g id="graph0" class="graph" transform="scale(1 1) rotate(0) translate(4 400)">
<title>sample</title>
<polygon fill="white" stroke="none" points="-4,4 -4,-400 543.2,-400 543.2,4 -4,4"/>
<!-- jqt -->
<g id="node1" class="node">
<title>jqt</title>
<ellipse fill="none" stroke="black" cx="103" cy="-378" rx="27" ry="18"/>
<text text-anchor="middle" x="103" y="-372.95" font-family="Times,serif" font-size="14.00">jqt</text>
</g>
<!-- rhn -->
<g id="node2" class="node">
<title>rhn</title>
<ellipse fill="none" stroke="black" cx="131" cy="-306" rx="27" ry="18"/>
<text text-anchor="middle" x="131" y="-300.95" font-family="Times,serif" font-size="14.00">rhn</text>
</g>
<!-- jqt&#45;&#45;rhn -->
<g id="edge1" class="edge">
<title>jqt&#45;&#45;rhn</title>
<path fill="none" stroke="black" d="M109.64,-360.41C114.1,-349.25 119.96,-334.6 124.41,-323.47"/>
</g>
<!-- xhk -->
<g id="node3" class="node">
<title>xhk</title>
<ellipse fill="none" stroke="black" cx="76" cy="-234" rx="27" ry="18"/>
<text text-anchor="middle" x="76" y="-228.95" font-family="Times,serif" font-size="14.00">xhk</text>
</g>
<!-- jqt&#45;&#45;xhk -->
<g id="edge2" class="edge">
<title>jqt&#45;&#45;xhk</title>
<path fill="none" stroke="black" d="M99.74,-359.87C94.55,-332.58 84.47,-279.52 79.27,-252.19"/>
</g>
<!-- nvd -->
<g id="node4" class="node">
<title>nvd</title>
<ellipse fill="none" stroke="black" cx="444" cy="-306" rx="27" ry="18"/>
<text text-anchor="middle" x="444" y="-300.95" font-family="Times,serif" font-size="14.00">nvd</text>
</g>
<!-- jqt&#45;&#45;nvd -->
<g id="edge3" class="edge">
<title>jqt&#45;&#45;nvd</title>
<path fill="none" stroke="black" d="M128.63,-371.74C191.98,-358.73 355.36,-325.19 418.54,-312.23"/>
</g>
<!-- ntq -->
<g id="node5" class="node">
<title>ntq</title>
<ellipse fill="none" stroke="black" cx="57" cy="-18" rx="27" ry="18"/>
<text text-anchor="middle" x="57" y="-12.95" font-family="Times,serif" font-size="14.00">ntq</text>
</g>
<!-- jqt&#45;&#45;ntq -->
<g id="edge4" class="edge">
<title>jqt&#45;&#45;ntq</title>
<path fill="none" stroke="black" d="M85.06,-364.38C55.55,-342 0,-292.26 0,-235 0,-235 0,-235 0,-161 0,-112.12 29.45,-60.15 46.01,-34.78"/>
</g>
<!-- rhn&#45;&#45;xhk -->
<g id="edge5" class="edge">
<title>rhn&#45;&#45;xhk</title>
<path fill="none" stroke="black" d="M118.79,-289.46C109.68,-277.86 97.28,-262.08 88.17,-250.49"/>
</g>
<!-- bvb -->
<g id="node6" class="node">
<title>bvb</title>
<ellipse fill="none" stroke="black" cx="131" cy="-90" rx="27" ry="18"/>
<text text-anchor="middle" x="131" y="-84.95" font-family="Times,serif" font-size="14.00">bvb</text>
</g>
<!-- rhn&#45;&#45;bvb -->
<g id="edge6" class="edge">
<title>rhn&#45;&#45;bvb</title>
<path fill="none" stroke="black" d="M140.13,-288.79C155.42,-259.51 183,-196.02 167,-144 162.62,-129.75 152.96,-115.9 144.75,-105.93"/>
</g>
<!-- hfx -->
<g id="node7" class="node">
<title>hfx</title>
<ellipse fill="none" stroke="black" cx="131" cy="-162" rx="27" ry="18"/>
<text text-anchor="middle" x="131" y="-156.95" font-family="Times,serif" font-size="14.00">hfx</text>
</g>
<!-- rhn&#45;&#45;hfx -->
<g id="edge7" class="edge">
<title>rhn&#45;&#45;hfx</title>
<path fill="none" stroke="black" d="M131,-287.59C131,-260.19 131,-207.32 131,-180.11"/>
</g>
<!-- xhk&#45;&#45;ntq -->
<g id="edge8" class="edge">
<title>xhk&#45;&#45;ntq</title>
<path fill="none" stroke="black" d="M74.48,-215.85C70.92,-175.78 62.09,-76.38 58.53,-36.23"/>
</g>
<!-- xhk&#45;&#45;bvb -->
<g id="edge9" class="edge">
<title>xhk&#45;&#45;bvb</title>
<path fill="none" stroke="black" d="M77.7,-215.67C79.95,-197.29 84.89,-167.69 95,-144 100.85,-130.29 110.44,-116.41 118.25,-106.3"/>
</g>
<!-- xhk&#45;&#45;hfx -->
<g id="edge10" class="edge">
<title>xhk&#45;&#45;hfx</title>
<path fill="none" stroke="black" d="M88.21,-217.46C97.32,-205.86 109.72,-190.08 118.83,-178.49"/>
</g>
<!-- cmg -->
<g id="node8" class="node">
<title>cmg</title>
<ellipse fill="none" stroke="black" cx="499" cy="-234" rx="27.3" ry="18"/>
<text text-anchor="middle" x="499" y="-228.95" font-family="Times,serif" font-size="14.00">cmg</text>
</g>
<!-- nvd&#45;&#45;cmg -->
<g id="edge11" class="edge">
<title>nvd&#45;&#45;cmg</title>
<path fill="none" stroke="black" d="M456.21,-289.46C465.32,-277.86 477.72,-262.08 486.83,-250.49"/>
</g>
<!-- pzl -->
<g id="node9" class="node">
<title>pzl</title>
<ellipse fill="none" stroke="black" cx="317" cy="-234" rx="27" ry="18"/>
<text text-anchor="middle" x="317" y="-228.95" font-family="Times,serif" font-size="14.00">pzl</text>
</g>
<!-- nvd&#45;&#45;pzl -->
<g id="edge12" class="edge">
<title>nvd&#45;&#45;pzl</title>
<path fill="none" stroke="black" d="M423.6,-293.75C399.9,-280.69 361.03,-259.27 337.35,-246.22"/>
</g>
<!-- qnr -->
<g id="node10" class="node">
<title>qnr</title>
<ellipse fill="none" stroke="black" cx="406" cy="-162" rx="27" ry="18"/>
<text text-anchor="middle" x="406" y="-156.95" font-family="Times,serif" font-size="14.00">qnr</text>
</g>
<!-- nvd&#45;&#45;qnr -->
<g id="edge13" class="edge">
<title>nvd&#45;&#45;qnr</title>
<path fill="none" stroke="black" d="M441.03,-287.77C437.75,-269.72 432.01,-240.62 425,-216 421.47,-203.59 416.53,-189.89 412.57,-179.52"/>
</g>
<!-- lhk -->
<g id="node11" class="node">
<title>lhk</title>
<ellipse fill="none" stroke="black" cx="480" cy="-90" rx="27" ry="18"/>
<text text-anchor="middle" x="480" y="-84.95" font-family="Times,serif" font-size="14.00">lhk</text>
</g>
<!-- nvd&#45;&#45;lhk -->
<g id="edge14" class="edge">
<title>nvd&#45;&#45;lhk</title>
<path fill="none" stroke="black" d="M468.72,-298.23C490.5,-290.82 520.88,-276.57 535,-252 544.17,-236.04 535.55,-161.07 528,-144 521.07,-128.33 507.66,-114.16 496.78,-104.41"/>
</g>
<!-- bvb&#45;&#45;ntq -->
<g id="edge33" class="edge">
<title>bvb&#45;&#45;ntq</title>
<path fill="none" stroke="black" d="M116.02,-74.83C103.27,-62.77 85.03,-45.51 72.21,-33.38"/>
</g>
<!-- hfx&#45;&#45;ntq -->
<g id="edge26" class="edge">
<title>hfx&#45;&#45;ntq</title>
<path fill="none" stroke="black" d="M119.47,-145.73C111.96,-135.4 102.25,-121.28 95,-108 81.79,-83.82 69.91,-54.1 63.08,-35.85"/>
</g>
<!-- hfx&#45;&#45;bvb -->
<g id="edge27" class="edge">
<title>hfx&#45;&#45;bvb</title>
<path fill="none" stroke="black" d="M131,-143.7C131,-132.85 131,-118.92 131,-108.1"/>
</g>
<!-- cmg&#45;&#45;bvb -->
<g id="edge28" class="edge">
<title>cmg&#45;&#45;bvb</title>
<path fill="none" stroke="black" d="M490.55,-216.54C478.35,-193.41 455.77,-153.12 442,-144 395.31,-113.08 224.76,-97.74 158.03,-92.82"/>
</g>
<!-- cmg&#45;&#45;qnr -->
<g id="edge29" class="edge">
<title>cmg&#45;&#45;qnr</title>
<path fill="none" stroke="black" d="M481.51,-219.83C464.88,-207.32 440.02,-188.6 423.41,-176.11"/>
</g>
<!-- cmg&#45;&#45;lhk -->
<g id="edge30" class="edge">
<title>cmg&#45;&#45;lhk</title>
<path fill="none" stroke="black" d="M505.86,-216.33C512.32,-198.25 520.05,-168.66 513,-144 509.01,-130.03 500.15,-116.17 492.62,-106.12"/>
</g>
<!-- rzs -->
<g id="node15" class="node">
<title>rzs</title>
<ellipse fill="none" stroke="black" cx="351" cy="-90" rx="27" ry="18"/>
<text text-anchor="middle" x="351" y="-84.95" font-family="Times,serif" font-size="14.00">rzs</text>
</g>
<!-- cmg&#45;&#45;rzs -->
<g id="edge31" class="edge">
<title>cmg&#45;&#45;rzs</title>
<path fill="none" stroke="black" d="M498.67,-215.52C497.4,-195.9 492.52,-164.18 475,-144 449.67,-114.83 405.48,-101.25 377.26,-95.27"/>
</g>
<!-- pzl&#45;&#45;hfx -->
<g id="edge22" class="edge">
<title>pzl&#45;&#45;hfx</title>
<path fill="none" stroke="black" d="M293.82,-224.28C258.08,-210.83 189.92,-185.17 154.18,-171.72"/>
</g>
<!-- lsr -->
<g id="node14" class="node">
<title>lsr</title>
<ellipse fill="none" stroke="black" cx="296" cy="-162" rx="27" ry="18"/>
<text text-anchor="middle" x="296" y="-156.95" font-family="Times,serif" font-size="14.00">lsr</text>
</g>
<!-- pzl&#45;&#45;lsr -->
<g id="edge23" class="edge">
<title>pzl&#45;&#45;lsr</title>
<path fill="none" stroke="black" d="M311.92,-216.05C308.61,-205.05 304.33,-190.76 301.04,-179.79"/>
</g>
<!-- qnr&#45;&#45;rzs -->
<g id="edge32" class="edge">
<title>qnr&#45;&#45;rzs</title>
<path fill="none" stroke="black" d="M393.79,-145.46C384.68,-133.86 372.28,-118.08 363.17,-106.49"/>
</g>
<!-- rsh -->
<g id="node12" class="node">
<title>rsh</title>
<ellipse fill="none" stroke="black" cx="290" cy="-306" rx="27" ry="18"/>
<text text-anchor="middle" x="290" y="-300.95" font-family="Times,serif" font-size="14.00">rsh</text>
</g>
<!-- rsh&#45;&#45;pzl -->
<g id="edge15" class="edge">
<title>rsh&#45;&#45;pzl</title>
<path fill="none" stroke="black" d="M296.54,-288.05C300.78,-277.05 306.29,-262.76 310.52,-251.79"/>
</g>
<!-- frs -->
<g id="node13" class="node">
<title>frs</title>
<ellipse fill="none" stroke="black" cx="389" cy="-234" rx="27" ry="18"/>
<text text-anchor="middle" x="389" y="-228.95" font-family="Times,serif" font-size="14.00">frs</text>
</g>
<!-- rsh&#45;&#45;frs -->
<g id="edge16" class="edge">
<title>rsh&#45;&#45;frs</title>
<path fill="none" stroke="black" d="M308.16,-292.16C326.02,-279.53 353.13,-260.36 370.96,-247.76"/>
</g>
<!-- rsh&#45;&#45;lsr -->
<g id="edge17" class="edge">
<title>rsh&#45;&#45;lsr</title>
<path fill="none" stroke="black" d="M285.85,-287.89C282.06,-269.94 277.54,-240.92 281,-216 282.71,-203.69 286.55,-190.21 289.92,-179.93"/>
</g>
<!-- rsh&#45;&#45;rzs -->
<g id="edge18" class="edge">
<title>rsh&#45;&#45;rzs</title>
<path fill="none" stroke="black" d="M280.21,-288.72C263.27,-258.23 232.79,-191.33 260,-144 274.12,-119.43 304.5,-105.18 326.28,-97.77"/>
</g>
<!-- frs&#45;&#45;qnr -->
<g id="edge19" class="edge">
<title>frs&#45;&#45;qnr</title>
<path fill="none" stroke="black" d="M393.12,-216.05C395.75,-205.21 399.16,-191.18 401.8,-180.28"/>
</g>
<!-- frs&#45;&#45;lhk -->
<g id="edge20" class="edge">
<title>frs&#45;&#45;lhk</title>
<path fill="none" stroke="black" d="M378.99,-216.98C368.63,-198.15 355.8,-166.61 370,-144 388.27,-114.92 427.47,-101.42 453.79,-95.43"/>
</g>
<!-- frs&#45;&#45;lsr -->
<g id="edge21" class="edge">
<title>frs&#45;&#45;lsr</title>
<path fill="none" stroke="black" d="M371.51,-219.83C354.88,-207.32 330.02,-188.6 313.41,-176.11"/>
</g>
<!-- lsr&#45;&#45;lhk -->
<g id="edge24" class="edge">
<title>lsr&#45;&#45;lhk</title>
<path fill="none" stroke="black" d="M318.49,-151.49C324.49,-149.01 330.97,-146.36 337,-144 378.78,-127.6 427.92,-109.69 456.36,-99.45"/>
</g>
<!-- lsr&#45;&#45;rzs -->
<g id="edge25" class="edge">
<title>lsr&#45;&#45;rzs</title>
<path fill="none" stroke="black" d="M308.21,-145.46C317.32,-133.86 329.72,-118.08 338.83,-106.49"/>
</g>
</g>
</svg>
